<mxfile host="app.diagrams.net" modified="2022-07-19T16:09:18.011Z" agent="5.0 (Windows NT 10.0; Win64; x64) AppleWebKit/537.36 (KHTML, like Gecko) Chrome/103.0.0.0 Safari/537.36" etag="6bZdP9A6Au1mln7gpAZT" version="20.1.1" type="github">
  <diagram id="1RCiNuseXIGv9hr6K2Ks" name="Page-1">
    <mxGraphModel dx="782" dy="460" grid="1" gridSize="10" guides="1" tooltips="1" connect="1" arrows="1" fold="1" page="1" pageScale="1" pageWidth="850" pageHeight="1100" math="0" shadow="0">
      <root>
        <mxCell id="0" />
        <mxCell id="1" parent="0" />
        <mxCell id="b_A696qZJF7pgTioqRDp-28" value="" style="rounded=0;whiteSpace=wrap;html=1;" vertex="1" parent="1">
          <mxGeometry x="310" y="5" width="460" height="355" as="geometry" />
        </mxCell>
        <mxCell id="b_A696qZJF7pgTioqRDp-1" value="" style="endArrow=classic;html=1;rounded=0;" edge="1" parent="1">
          <mxGeometry width="50" height="50" relative="1" as="geometry">
            <mxPoint x="380" y="350" as="sourcePoint" />
            <mxPoint x="380" y="10" as="targetPoint" />
          </mxGeometry>
        </mxCell>
        <mxCell id="b_A696qZJF7pgTioqRDp-2" value="" style="endArrow=classic;html=1;rounded=0;" edge="1" parent="1">
          <mxGeometry width="50" height="50" relative="1" as="geometry">
            <mxPoint x="330" y="320" as="sourcePoint" />
            <mxPoint x="750" y="320" as="targetPoint" />
          </mxGeometry>
        </mxCell>
        <mxCell id="b_A696qZJF7pgTioqRDp-3" value="" style="ellipse;whiteSpace=wrap;html=1;fillColor=#FF0080;" vertex="1" parent="1">
          <mxGeometry x="440" y="190" width="20" height="20" as="geometry" />
        </mxCell>
        <mxCell id="b_A696qZJF7pgTioqRDp-4" value="" style="ellipse;whiteSpace=wrap;html=1;fillColor=#FF0080;" vertex="1" parent="1">
          <mxGeometry x="470" y="200" width="20" height="20" as="geometry" />
        </mxCell>
        <mxCell id="b_A696qZJF7pgTioqRDp-5" value="" style="ellipse;whiteSpace=wrap;html=1;fillColor=#FF0080;" vertex="1" parent="1">
          <mxGeometry x="460" y="170" width="20" height="20" as="geometry" />
        </mxCell>
        <mxCell id="b_A696qZJF7pgTioqRDp-6" value="" style="ellipse;whiteSpace=wrap;html=1;fillColor=#FF0080;" vertex="1" parent="1">
          <mxGeometry x="500" y="180" width="20" height="20" as="geometry" />
        </mxCell>
        <mxCell id="b_A696qZJF7pgTioqRDp-7" value="" style="ellipse;whiteSpace=wrap;html=1;fillColor=#FF0080;" vertex="1" parent="1">
          <mxGeometry x="490" y="150" width="20" height="20" as="geometry" />
        </mxCell>
        <mxCell id="b_A696qZJF7pgTioqRDp-8" value="" style="ellipse;whiteSpace=wrap;html=1;fillColor=#FF0080;" vertex="1" parent="1">
          <mxGeometry x="440" y="150" width="20" height="20" as="geometry" />
        </mxCell>
        <mxCell id="b_A696qZJF7pgTioqRDp-9" value="" style="ellipse;whiteSpace=wrap;html=1;fillColor=#FF0080;" vertex="1" parent="1">
          <mxGeometry x="470" y="130" width="20" height="20" as="geometry" />
        </mxCell>
        <mxCell id="b_A696qZJF7pgTioqRDp-10" value="" style="ellipse;whiteSpace=wrap;html=1;fillColor=#FF0080;" vertex="1" parent="1">
          <mxGeometry x="530" y="120" width="20" height="20" as="geometry" />
        </mxCell>
        <mxCell id="b_A696qZJF7pgTioqRDp-11" value="" style="ellipse;whiteSpace=wrap;html=1;fillColor=#FF0080;" vertex="1" parent="1">
          <mxGeometry x="590" y="130" width="20" height="20" as="geometry" />
        </mxCell>
        <mxCell id="b_A696qZJF7pgTioqRDp-12" value="" style="ellipse;whiteSpace=wrap;html=1;fillColor=#3333FF;" vertex="1" parent="1">
          <mxGeometry x="550" y="260" width="20" height="20" as="geometry" />
        </mxCell>
        <mxCell id="b_A696qZJF7pgTioqRDp-13" value="" style="ellipse;whiteSpace=wrap;html=1;fillColor=#3333FF;" vertex="1" parent="1">
          <mxGeometry x="580" y="230" width="20" height="20" as="geometry" />
        </mxCell>
        <mxCell id="b_A696qZJF7pgTioqRDp-14" value="" style="ellipse;whiteSpace=wrap;html=1;fillColor=#3333FF;" vertex="1" parent="1">
          <mxGeometry x="620" y="230" width="20" height="20" as="geometry" />
        </mxCell>
        <mxCell id="b_A696qZJF7pgTioqRDp-15" value="" style="ellipse;whiteSpace=wrap;html=1;fillColor=#3333FF;" vertex="1" parent="1">
          <mxGeometry x="590" y="270" width="20" height="20" as="geometry" />
        </mxCell>
        <mxCell id="b_A696qZJF7pgTioqRDp-23" value="" style="ellipse;whiteSpace=wrap;html=1;fillColor=#3333FF;" vertex="1" parent="1">
          <mxGeometry x="630" y="260" width="20" height="20" as="geometry" />
        </mxCell>
        <mxCell id="b_A696qZJF7pgTioqRDp-24" value="" style="ellipse;whiteSpace=wrap;html=1;fillColor=#3333FF;" vertex="1" parent="1">
          <mxGeometry x="610" y="290" width="20" height="20" as="geometry" />
        </mxCell>
        <mxCell id="b_A696qZJF7pgTioqRDp-25" value="" style="ellipse;whiteSpace=wrap;html=1;fillColor=#3333FF;" vertex="1" parent="1">
          <mxGeometry x="520" y="240" width="20" height="20" as="geometry" />
        </mxCell>
        <mxCell id="b_A696qZJF7pgTioqRDp-26" value="" style="ellipse;whiteSpace=wrap;html=1;fillColor=#3333FF;" vertex="1" parent="1">
          <mxGeometry x="660" y="200" width="20" height="20" as="geometry" />
        </mxCell>
        <mxCell id="b_A696qZJF7pgTioqRDp-27" value="" style="endArrow=none;html=1;rounded=0;" edge="1" parent="1">
          <mxGeometry width="50" height="50" relative="1" as="geometry">
            <mxPoint x="320" y="280" as="sourcePoint" />
            <mxPoint x="720" y="170" as="targetPoint" />
          </mxGeometry>
        </mxCell>
      </root>
    </mxGraphModel>
  </diagram>
</mxfile>
